<?xml version="1.0" encoding="UTF-8"?>
<svg xmlns="http://www.w3.org/2000/svg" xmlns:xlink="http://www.w3.org/1999/xlink" width="88pt" height="88pt" viewBox="0 0 88 88" version="1.1">
<g id="surface1">
<path style=" stroke:none;fill-rule:nonzero;fill:rgb(0%,0%,0%);fill-opacity:1;" d="M 27.773438 73.472656 C 25.808594 73.710938 24.027344 73.269531 22.425781 72.148438 C 20.824219 71.027344 19.789062 69.492188 19.324219 67.53125 C 18.816406 65.375 19.167969 63.433594 20.378906 61.703125 C 21.589844 59.976562 23.289062 58.976562 25.484375 58.710938 C 26.757812 58.554688 27.964844 58.714844 29.117188 59.183594 C 30.265625 59.652344 31.265625 60.386719 32.109375 61.386719 L 30.921875 62.394531 C 29.5 60.726562 27.773438 60.019531 25.738281 60.265625 C 24.023438 60.480469 22.710938 61.257812 21.8125 62.621094 C 20.90625 63.980469 20.660156 65.527344 21.070312 67.253906 C 21.433594 68.796875 22.21875 70.003906 23.425781 70.882812 C 24.632812 71.753906 26.007812 72.097656 27.539062 71.914062 C 29.429688 71.6875 30.847656 70.742188 31.789062 69.082031 L 33.1875 69.90625 C 32.632812 70.898438 31.890625 71.707031 30.949219 72.328125 C 30.011719 72.949219 28.949219 73.335938 27.765625 73.476562 Z M 41.683594 71.777344 C 39.71875 72.015625 37.941406 71.570312 36.351562 70.433594 C 34.761719 69.292969 33.738281 67.765625 33.28125 65.832031 C 32.765625 63.660156 33.109375 61.714844 34.320312 59.992188 C 35.523438 58.269531 37.21875 57.277344 39.398438 57.011719 C 41.363281 56.773438 43.140625 57.222656 44.730469 58.355469 C 46.316406 59.496094 47.339844 61.03125 47.800781 62.957031 C 48.3125 65.117188 47.960938 67.058594 46.75 68.785156 C 45.535156 70.511719 43.851562 71.507812 41.683594 71.773438 Z M 41.40625 70.226562 C 43.09375 70.019531 44.390625 69.234375 45.304688 67.867188 C 46.210938 66.5 46.457031 64.953125 46.050781 63.21875 C 45.691406 61.703125 44.910156 60.507812 43.707031 59.625 C 42.503906 58.742188 41.148438 58.394531 39.632812 58.578125 C 37.929688 58.785156 36.628906 59.570312 35.734375 60.929688 C 34.839844 62.289062 34.589844 63.824219 34.996094 65.539062 C 35.363281 67.066406 36.140625 68.277344 37.347656 69.164062 C 38.558594 70.054688 39.90625 70.410156 41.40625 70.226562 Z M 58.898438 54.886719 L 58.910156 55.390625 L 51.089844 68.851562 L 59.664062 67.808594 L 59.761719 69.339844 L 48.414062 70.722656 L 48.382812 70.21875 L 56.160156 56.761719 L 48.652344 57.679688 L 48.535156 56.148438 L 58.910156 54.886719 Z M 71.132812 67.953125 L 69.738281 65.164062 L 62.78125 66.011719 L 61.730469 69.097656 L 59.828125 69.332031 L 65.171875 53.878906 L 65.777344 53.808594 L 72.839844 67.746094 L 71.125 67.953125 Z M 68.992188 63.714844 L 65.746094 57.050781 L 63.320312 64.40625 Z M 68.992188 63.714844 "/>
<path style=" stroke:none;fill-rule:evenodd;fill:rgb(0%,0%,0%);fill-opacity:1;" d="M 5.265625 44.398438 C 5.265625 37.195312 6.882812 31.726562 9.515625 26.453125 C 11.40625 22.671875 13.714844 19.597656 16.644531 16.667969 L 18.789062 14.65625 C 21.289062 12.429688 24.960938 10.097656 27.988281 8.742188 C 38.375 4.105469 49.738281 4.105469 60.132812 8.742188 C 62.101562 9.617188 64.523438 11.042969 66.257812 12.25 L 69.605469 14.867188 L 73.210938 18.472656 C 74.363281 19.714844 75.921875 21.933594 76.828125 23.3125 C 80.480469 28.8125 82.859375 36.808594 82.859375 43.84375 C 82.859375 51.050781 81.242188 56.519531 78.613281 61.792969 C 77.386719 64.253906 76.054688 66.242188 74.378906 68.375 C 74.179688 68.628906 74.007812 68.8125 73.8125 69.058594 C 73.046875 70.039062 71.09375 72.027344 70.304688 72.761719 C 68.191406 74.71875 65.800781 76.363281 63.339844 77.859375 L 60.140625 79.507812 C 49.746094 84.140625 38.386719 84.140625 27.992188 79.507812 C 24.53125 77.960938 21.40625 75.800781 18.519531 73.378906 L 15.464844 70.398438 C 15.339844 70.257812 15.339844 70.230469 15.222656 70.085938 L 14.632812 69.425781 C 8.769531 62.835938 5.265625 53.265625 5.265625 44.402344 Z M 42.402344 0 L 45.769531 0 C 47.222656 0.0546875 48.65625 0.183594 50.050781 0.386719 C 51.648438 0.617188 53.152344 0.886719 54.589844 1.246094 C 61.472656 2.984375 67.496094 6.15625 72.859375 10.703125 C 73.875 11.5625 75.433594 13.015625 76.292969 13.992188 C 77.703125 15.601562 78.914062 17.078125 80.1875 18.839844 C 81.324219 20.414062 82.378906 22.140625 83.253906 23.886719 C 84.179688 25.738281 84.960938 27.621094 85.691406 29.5625 C 86.191406 30.894531 86.613281 32.335938 86.917969 33.746094 C 87.632812 37.035156 88.042969 40.0625 88.125 43.058594 L 88.125 45.371094 C 88.042969 48.324219 87.640625 51.304688 86.902344 54.554688 C 86.324219 57.117188 85.234375 60.300781 84.101562 62.574219 C 82.71875 65.355469 82.851562 65.09375 81.242188 67.824219 C 80.394531 69.265625 78.960938 71.21875 77.816406 72.515625 C 77.601562 72.757812 77.367188 73.003906 77.164062 73.246094 L 75.253906 75.289062 C 74.347656 76.195312 73.390625 77.007812 72.449219 77.890625 C 70.863281 79.363281 68.726562 80.667969 66.925781 81.859375 C 63.464844 84.152344 58.339844 86.050781 54.535156 87.011719 C 51.75 87.710938 48.742188 88.128906 45.726562 88.242188 L 42.351562 88.242188 C 40.902344 88.1875 39.464844 88.0625 38.074219 87.859375 C 32.601562 87.066406 27.542969 85.355469 22.816406 82.8125 C 22.519531 82.652344 22.277344 82.496094 21.984375 82.332031 C 19.582031 80.984375 17.363281 79.316406 15.261719 77.546875 C 14.175781 76.621094 13.183594 75.609375 12.175781 74.601562 L 10.273438 72.480469 C 7.5625 69.277344 5.1875 65.472656 3.566406 61.578125 C 3.421875 61.230469 3.3125 60.988281 3.175781 60.648438 C 2.648438 59.324219 2.1875 58.019531 1.777344 56.640625 C 1.566406 55.929688 1.367188 55.242188 1.207031 54.503906 C 0.324219 50.421875 0 47.820312 0 43.296875 C 0 37.0625 1.695312 30.246094 4.457031 24.726562 C 4.621094 24.40625 4.734375 24.164062 4.894531 23.847656 L 5.382812 22.945312 C 6.113281 21.507812 7.046875 20.113281 7.96875 18.804688 C 8.34375 18.273438 8.695312 17.773438 9.105469 17.242188 L 10.308594 15.742188 C 11.566406 14.328125 12.796875 12.863281 14.25 11.644531 L 15.339844 10.652344 C 17.015625 9.351562 18.410156 8.066406 20.347656 6.921875 C 20.644531 6.746094 20.929688 6.574219 21.199219 6.390625 C 21.988281 5.867188 22.917969 5.371094 23.761719 4.9375 C 26.882812 3.308594 29.976562 2.160156 33.585938 1.246094 C 36.375 0.542969 39.382812 0.125 42.402344 0.0117188 Z M 42.402344 0 "/>
<path style=" stroke:none;fill-rule:evenodd;fill:rgb(0%,0%,0%);fill-opacity:1;" d="M 38.574219 26.128906 C 38.574219 25.589844 38.53125 24.808594 39.203125 24.542969 C 39.6875 24.355469 40.097656 24.5625 40.421875 24.816406 C 41.492188 25.628906 41.929688 27.476562 41.328125 28.285156 C 40.433594 29.492188 38.570312 27.605469 38.570312 26.128906 Z M 40.917969 15 Z M 40.984375 14.867188 L 40.917969 15 Z M 40.984375 14.867188 C 41.035156 14.675781 40.976562 14.765625 41.121094 14.667969 C 41.074219 14.859375 41.128906 14.765625 40.984375 14.867188 Z M 41.121094 14.667969 C 41.207031 14.289062 41.746094 13.738281 42.007812 13.476562 C 42.722656 12.761719 43.5625 12.167969 44.097656 11.277344 C 44.433594 10.707031 44.46875 10.386719 44.46875 9.503906 L 44.398438 9.503906 C 44.398438 10.871094 42.613281 11.96875 41.808594 12.945312 C 41.683594 13.089844 41.683594 13.128906 41.535156 13.277344 C 41.09375 13.738281 40.4375 14.425781 40.378906 15.140625 C 40.078125 14.917969 39.089844 12.953125 38.8125 12.484375 C 38.710938 12.304688 38.65625 12.195312 38.546875 12.015625 C 38.429688 11.816406 38.363281 11.761719 38.308594 11.523438 L 38.175781 11.523438 C 38.167969 11.914062 37.964844 12.429688 37.867188 12.820312 C 37.753906 13.277344 37.675781 13.648438 37.546875 14.109375 C 36.824219 16.65625 36.183594 19.242188 35.539062 21.8125 C 34.238281 26.996094 32.847656 32.066406 31.554688 37.25 L 28.222656 50.128906 C 28.078125 50.695312 27.71875 52.347656 27.539062 52.726562 C 27.921875 52.621094 28.601562 51.71875 28.890625 51.40625 C 29.054688 51.234375 29.195312 51.105469 29.359375 50.9375 L 33.410156 46.878906 C 33.597656 46.6875 33.652344 46.570312 33.84375 46.375 C 35.335938 44.867188 36.917969 43.414062 38.359375 41.855469 L 39.230469 40.917969 C 39.917969 40.230469 41.488281 38.832031 41.921875 38.183594 C 41.71875 38.203125 41.601562 38.25 41.453125 38.316406 C 41.734375 37.105469 42.066406 36.296875 41.992188 34.703125 C 41.964844 34.171875 41.707031 33.464844 41.523438 33.09375 C 41.234375 32.5 41.035156 32.316406 40.519531 31.953125 C 39.304688 31.105469 36.589844 29.277344 37.105469 27.0625 C 37.742188 27.53125 38.304688 28.71875 39.714844 29.410156 C 40.371094 29.738281 41.675781 29.617188 42.054688 28.867188 C 42.382812 28.234375 42.324219 26.566406 42.324219 25.789062 C 42.320312 25.226562 42.390625 24.808594 42.390625 24.179688 C 42.96875 25.011719 43.539062 28.949219 43.527344 29.878906 C 43.515625 30.632812 43.949219 30.894531 44.207031 31.542969 C 44.925781 33.34375 45.054688 35.371094 43.804688 36.921875 C 43.570312 37.210938 42.839844 37.8125 42.457031 37.917969 C 42.546875 38.257812 43.171875 38.484375 43.445312 38.667969 L 44.507812 39.34375 C 44.726562 39.476562 44.828125 39.550781 45.035156 39.6875 C 45.238281 39.820312 45.367188 39.886719 45.574219 40.023438 L 48.761719 42.0625 C 49.480469 42.523438 50.1875 42.949219 50.886719 43.414062 L 55.671875 46.457031 C 55.875 46.585938 55.996094 46.679688 56.199219 46.804688 L 57.269531 47.476562 C 57.992188 47.945312 58.691406 48.445312 59.449219 48.84375 C 59.375 48.519531 54.183594 39.4375 53.183594 37.757812 L 46.875 26.660156 C 45.875 24.925781 43.632812 21.070312 42.652344 19.226562 L 45.882812 16.230469 C 47.027344 15.269531 48.246094 14.285156 48.941406 12.933594 C 49.347656 12.15625 49.519531 11.375 49.625 10.460938 C 49.652344 10.207031 49.691406 9.914062 49.589844 9.667969 C 49.585938 9.65625 49.570312 9.636719 49.570312 9.625 C 49.5625 9.613281 49.554688 9.589844 49.542969 9.578125 C 49.542969 10.746094 48.820312 11.671875 48.28125 12.335938 C 47.835938 12.890625 47.316406 13.382812 46.820312 13.882812 L 44.675781 15.832031 C 44.496094 15.988281 44.347656 16.164062 44.171875 16.332031 C 43.675781 16.824219 43.078125 17.257812 42.640625 17.8125 C 42.460938 18.039062 42.351562 18.199219 42.117188 18.355469 C 42.0625 18.160156 42.089844 18.246094 41.980469 18.089844 C 42.25 17.585938 43.378906 16.476562 43.84375 16.066406 C 43.964844 15.957031 43.984375 15.96875 44.101562 15.859375 C 44.210938 15.769531 44.242188 15.714844 44.34375 15.628906 L 45.945312 14.285156 C 46.988281 13.363281 47.996094 12.210938 48.328125 10.84375 C 48.488281 10.183594 48.476562 9.84375 48.476562 9.046875 L 48.40625 9.046875 C 48.40625 9.617188 48.203125 10.117188 47.980469 10.492188 C 47.753906 10.863281 47.476562 11.273438 47.1875 11.578125 L 44.304688 14.390625 C 43.539062 15.167969 42.640625 15.859375 41.929688 16.707031 C 41.734375 16.941406 41.703125 17.050781 41.445312 17.21875 C 41.542969 16.054688 45.371094 13.472656 46.210938 12.140625 C 46.4375 11.789062 46.605469 11.464844 46.722656 11.042969 C 46.878906 10.460938 46.867188 10.242188 46.867188 9.515625 L 46.796875 9.515625 C 46.796875 10.320312 46.164062 11.195312 45.746094 11.609375 C 45.464844 11.886719 45.316406 12.160156 45.003906 12.40625 L 43.773438 13.519531 C 43.621094 13.664062 43.527344 13.78125 43.375 13.921875 C 43.203125 14.082031 43.113281 14.113281 42.9375 14.289062 C 42.007812 15.210938 41.96875 15.296875 41.214844 16.179688 C 41.074219 16.34375 41.203125 16.289062 40.980469 16.351562 C 40.992188 15.984375 41.261719 15.589844 41.425781 15.324219 C 41.527344 15.164062 41.621094 15.042969 41.738281 14.894531 C 43.472656 12.769531 45.933594 12.128906 45.933594 9.109375 L 45.867188 9.109375 C 45.867188 10.410156 43.484375 12.332031 42.375 13.316406 C 41.992188 13.648438 41.453125 14.445312 41.121094 14.671875 Z M 41.121094 14.667969 "/>
<path style=" stroke:none;fill-rule:evenodd;fill:rgb(0%,0%,0%);fill-opacity:1;" d="M 31.011719 52.195312 L 56.777344 49.449219 C 56.65625 49.285156 56.160156 49.03125 55.929688 48.882812 L 51.578125 46.210938 C 50.949219 45.839844 50.414062 45.480469 49.792969 45.113281 L 43.695312 41.367188 C 43.359375 41.164062 43.089844 41.007812 42.785156 40.804688 L 32.46875 50.710938 C 32.226562 50.90625 31.152344 51.96875 31.007812 52.195312 Z M 31.011719 52.195312 "/>
</g>
</svg>
