<?xml version="1.0" encoding="UTF-8"?>
<!DOCTYPE svg PUBLIC "-//W3C//DTD SVG 1.1//EN" "http://www.w3.org/Graphics/SVG/1.1/DTD/svg11.dtd">
<!-- Creator: CorelDRAW 2019 (64-Bit) -->
<svg xmlns="http://www.w3.org/2000/svg" xml:space="preserve" width="1.50213in" height="1.50409in" version="1.1" style="shape-rendering:geometricPrecision; text-rendering:geometricPrecision; image-rendering:optimizeQuality; fill-rule:evenodd; clip-rule:evenodd"
viewBox="0 0 191.92 192.17"
 xmlns:xlink="http://www.w3.org/1999/xlink">
 <defs>
  <style type="text/css">
   <![CDATA[
    .fil1 {fill:black}
    .fil0 {fill:black;fill-rule:nonzero}
   ]]>
  </style>
 </defs>
 <g id="Layer_x0020_1">
  <metadata id="CorelCorpID_0Corel-Layer"/>
  <g id="_1764617406752">
   <path class="fil0" d="M60.49 160.01c-4.28,0.52 -8.16,-0.44 -11.65,-2.88 -3.49,-2.44 -5.74,-5.79 -6.75,-10.06 -1.11,-4.7 -0.35,-8.93 2.29,-12.69 2.64,-3.76 6.34,-5.94 11.12,-6.52 2.77,-0.34 5.4,0.01 7.91,1.03 2.51,1.02 4.68,2.62 6.52,4.8l-2.59 2.19c-3.09,-3.63 -6.85,-5.17 -11.28,-4.63 -3.74,0.46 -6.6,2.16 -8.56,5.13 -1.97,2.96 -2.51,6.33 -1.62,10.09 0.8,3.36 2.51,5.99 5.14,7.9 2.63,1.9 5.62,2.65 8.95,2.25 4.12,-0.5 7.21,-2.56 9.26,-6.17l3.04 1.79c-1.2,2.16 -2.82,3.92 -4.87,5.28 -2.04,1.35 -4.35,2.19 -6.93,2.5zm30.29 -3.69c-4.28,0.52 -8.15,-0.46 -11.61,-2.93 -3.46,-2.48 -5.69,-5.81 -6.69,-10.02 -1.12,-4.73 -0.37,-8.97 2.26,-12.72 2.62,-3.75 6.31,-5.91 11.06,-6.49 4.28,-0.52 8.15,0.46 11.61,2.93 3.46,2.48 5.69,5.82 6.69,10.02 1.11,4.7 0.35,8.93 -2.29,12.69 -2.64,3.76 -6.31,5.93 -11.03,6.51zm-0.61 -3.38c3.68,-0.45 6.51,-2.16 8.49,-5.14 1.98,-2.98 2.52,-6.35 1.63,-10.12 -0.78,-3.3 -2.48,-5.91 -5.1,-7.83 -2.62,-1.92 -5.58,-2.68 -8.88,-2.28 -3.71,0.45 -6.54,2.16 -8.49,5.12 -1.95,2.96 -2.49,6.31 -1.6,10.04 0.79,3.33 2.49,5.96 5.12,7.9 2.63,1.94 5.57,2.71 8.84,2.31zm38.1 -33.41l0.02 1.1 -17.03 29.31 18.68 -2.27 0.21 3.34 -24.71 3.01 -0.07 -1.1 16.94 -29.3 -16.36 1.99 -0.25 -3.33 22.59 -2.75zm26.64 28.46l-3.04 -6.07 -15.14 1.84 -2.29 6.72 -4.15 0.51 11.64 -33.65 1.32 -0.16 15.38 30.36 -3.73 0.45zm-4.66 -9.23l-7.07 -14.51 -5.28 16.01 12.36 -1.5z"/>
   <path class="fil1" d="M11.47 96.69c0,-15.69 3.52,-27.6 9.25,-39.08 4.12,-8.24 9.15,-14.93 15.53,-21.31l4.67 -4.38c5.44,-4.85 13.44,-9.93 20.03,-12.88 22.63,-10.1 47.37,-10.1 70.01,0 4.29,1.91 9.56,5.01 13.34,7.64l7.29 5.7 7.85 7.85c2.51,2.7 5.9,7.54 7.88,10.54 7.95,11.98 13.13,29.39 13.13,44.72 0,15.69 -3.52,27.6 -9.25,39.08 -2.67,5.36 -5.57,9.69 -9.22,14.34 -0.43,0.55 -0.8,0.95 -1.23,1.49 -1.67,2.13 -5.92,6.46 -7.64,8.06 -4.6,4.26 -9.81,7.85 -15.17,11.1l-6.97 3.59c-22.63,10.09 -47.37,10.09 -70.01,0 -7.54,-3.36 -14.34,-8.07 -20.63,-13.34l-6.65 -6.49c-0.28,-0.31 -0.28,-0.37 -0.53,-0.68l-1.28 -1.44c-12.77,-14.36 -20.4,-35.19 -20.4,-54.5zm80.87 -96.69l7.34 0c3.16,0.12 6.29,0.4 9.32,0.84 3.48,0.5 6.76,1.09 9.89,1.88 14.99,3.78 28.1,10.69 39.79,20.59 2.21,1.87 5.6,5.03 7.47,7.17 3.07,3.5 5.71,6.71 8.48,10.55 2.48,3.43 4.78,7.19 6.68,10.99 2.02,4.04 3.72,8.13 5.31,12.36 1.09,2.9 2.01,6.04 2.67,9.11 1.56,7.17 2.45,13.76 2.63,20.28l0 5.04c-0.18,6.43 -1.06,12.92 -2.66,20 -1.26,5.58 -3.64,12.51 -6.1,17.46 -3.01,6.06 -2.73,5.49 -6.23,11.44 -1.85,3.14 -4.96,7.39 -7.46,10.21 -0.47,0.53 -0.98,1.07 -1.42,1.6l-4.16 4.44c-1.98,1.98 -4.06,3.75 -6.11,5.67 -3.45,3.21 -8.11,6.05 -12.03,8.65 -7.54,4.99 -18.69,9.12 -26.98,11.21 -6.07,1.53 -12.62,2.44 -19.19,2.69l-7.34 0c-3.16,-0.12 -6.29,-0.4 -9.32,-0.84 -11.92,-1.73 -22.93,-5.45 -33.23,-10.99 -0.65,-0.35 -1.17,-0.69 -1.81,-1.05 -5.23,-2.93 -10.07,-6.56 -14.64,-10.42 -2.37,-2.01 -4.53,-4.22 -6.72,-6.41l-4.14 -4.62c-5.91,-6.98 -11.08,-15.26 -14.62,-23.74 -0.31,-0.76 -0.54,-1.29 -0.84,-2.03 -1.15,-2.88 -2.16,-5.73 -3.05,-8.73 -0.46,-1.54 -0.89,-3.05 -1.24,-4.65 -1.93,-8.89 -2.63,-14.56 -2.63,-24.41 0,-13.57 3.69,-28.42 9.71,-40.44 0.35,-0.7 0.6,-1.22 0.95,-1.92l1.06 -1.96c1.59,-3.13 3.63,-6.17 5.63,-9.01 0.82,-1.16 1.58,-2.26 2.48,-3.41l2.62 -3.27c2.74,-3.08 5.42,-6.27 8.59,-8.92l2.37 -2.16c3.65,-2.84 6.69,-5.63 10.9,-8.12 0.65,-0.39 1.27,-0.77 1.86,-1.16 1.72,-1.14 3.74,-2.22 5.58,-3.17 6.79,-3.54 13.53,-6.05 21.4,-8.04 6.07,-1.53 12.62,-2.44 19.19,-2.69z"/>
   <path class="fil1" d="M84.01 56.9c0,-1.17 -0.1,-2.87 1.37,-3.45 1.05,-0.41 1.95,0.05 2.65,0.59 2.34,1.78 3.29,5.8 1.98,7.56 -1.95,2.63 -6.01,-1.48 -6.01,-4.7zm5.1 -24.23l0 0zm0.15 -0.29l-0.15 0.29 0.15 -0.29zm0 0c0.1,-0.42 -0.02,-0.22 0.29,-0.44 -0.1,0.42 0.02,0.22 -0.29,0.44zm0.29 -0.44c0.19,-0.82 1.36,-2.02 1.93,-2.59 1.56,-1.56 3.39,-2.85 4.55,-4.79 0.74,-1.24 0.81,-1.94 0.81,-3.86l-0.15 0c0,2.97 -3.88,5.37 -5.64,7.49 -0.27,0.32 -0.27,0.4 -0.59,0.73 -0.97,1 -2.39,2.5 -2.52,4.05 -0.66,-0.48 -2.81,-4.76 -3.41,-5.78 -0.23,-0.39 -0.35,-0.63 -0.58,-1.02 -0.26,-0.44 -0.4,-0.55 -0.52,-1.08l-0.29 0c-0.02,0.86 -0.46,1.98 -0.67,2.83 -0.25,1 -0.42,1.81 -0.7,2.8 -1.58,5.56 -2.97,11.19 -4.37,16.78 -2.84,11.29 -5.86,22.33 -8.68,33.62l-7.26 28.05c-0.31,1.24 -1.09,4.83 -1.49,5.66 0.84,-0.23 2.32,-2.2 2.95,-2.88 0.35,-0.37 0.66,-0.65 1.02,-1.02l8.82 -8.83c0.41,-0.42 0.53,-0.68 0.94,-1.1 3.25,-3.29 6.7,-6.45 9.84,-9.85l1.89 -2.04c1.5,-1.5 4.92,-4.54 5.87,-5.95 -0.45,0.04 -0.7,0.14 -1.02,0.29 0.61,-2.64 1.34,-4.4 1.17,-7.88 -0.06,-1.15 -0.62,-2.69 -1.02,-3.5 -0.63,-1.29 -1.07,-1.69 -2.19,-2.48 -2.64,-1.85 -8.56,-5.83 -7.43,-10.65 1.39,1.02 2.61,3.6 5.68,5.11 1.43,0.71 4.27,0.45 5.1,-1.18 0.71,-1.38 0.59,-5.02 0.58,-6.71 -0.01,-1.22 0.15,-2.13 0.15,-3.5 1.26,1.81 2.5,10.39 2.47,12.41 -0.02,1.64 0.92,2.21 1.48,3.62 1.57,3.93 1.85,8.34 -0.87,11.72 -0.51,0.63 -2.11,1.94 -2.94,2.17 0.2,0.74 1.56,1.23 2.16,1.63l2.31 1.48c0.47,0.28 0.7,0.45 1.15,0.74 0.44,0.29 0.72,0.43 1.17,0.73l6.94 4.44c1.57,1.01 3.11,1.93 4.63,2.95l10.43 6.63c0.44,0.27 0.7,0.48 1.14,0.75l2.33 1.46c1.57,1.03 3.1,2.11 4.75,2.98 -0.16,-0.7 -11.47,-20.48 -13.64,-24.14l-13.75 -24.17c-2.17,-3.78 -7.06,-12.17 -9.19,-16.19l7.04 -6.52c2.49,-2.1 5.14,-4.24 6.66,-7.19 0.88,-1.69 1.26,-3.39 1.48,-5.38 0.06,-0.55 0.15,-1.19 -0.07,-1.72 -0.01,-0.03 -0.04,-0.08 -0.05,-0.1 -0.01,-0.02 -0.03,-0.07 -0.05,-0.1 0,2.54 -1.58,4.56 -2.75,6.01 -0.97,1.2 -2.1,2.27 -3.19,3.37l-4.66 4.24c-0.4,0.34 -0.72,0.72 -1.1,1.09 -1.08,1.07 -2.38,2.02 -3.34,3.22 -0.39,0.5 -0.62,0.84 -1.14,1.19 -0.12,-0.43 -0.06,-0.24 -0.29,-0.58 0.58,-1.1 3.04,-3.52 4.05,-4.41 0.27,-0.24 0.31,-0.22 0.57,-0.45 0.23,-0.19 0.3,-0.31 0.52,-0.5l3.49 -2.93c2.27,-2 4.46,-4.52 5.19,-7.5 0.35,-1.43 0.32,-2.17 0.32,-3.91l-0.15 0c0,1.25 -0.44,2.33 -0.93,3.15 -0.49,0.81 -1.1,1.7 -1.73,2.36l-6.27 6.13c-1.67,1.7 -3.63,3.2 -5.17,5.04 -0.43,0.51 -0.5,0.75 -1.06,1.12 0.21,-2.53 8.55,-8.16 10.38,-11.06 0.49,-0.77 0.86,-1.47 1.11,-2.39 0.35,-1.27 0.32,-1.75 0.32,-3.33l-0.15 0c0,1.75 -1.38,3.66 -2.29,4.56 -0.62,0.61 -0.94,1.2 -1.62,1.74l-2.68 2.42c-0.33,0.32 -0.54,0.57 -0.87,0.88 -0.37,0.35 -0.57,0.42 -0.95,0.8 -2.03,2.01 -2.11,2.19 -3.75,4.12 -0.31,0.36 -0.03,0.24 -0.51,0.37 0.02,-0.8 0.61,-1.66 0.97,-2.24 0.22,-0.35 0.42,-0.61 0.68,-0.93 3.78,-4.63 9.14,-6.03 9.14,-12.6l-0.15 0c0,2.83 -5.19,7.02 -7.61,9.16 -0.83,0.73 -2,2.46 -2.73,2.95z"/>
   <path class="fil1" d="M67.54 113.67l56.11 -5.98c-0.26,-0.35 -1.35,-0.91 -1.84,-1.23l-9.49 -5.82c-1.36,-0.81 -2.53,-1.59 -3.88,-2.39l-13.28 -8.16c-0.73,-0.44 -1.32,-0.79 -1.98,-1.23l-22.47 21.58c-0.53,0.42 -2.86,2.74 -3.18,3.23z"/>
  </g>
 </g>
</svg>
